<svg xmlns="http://www.w3.org/2000/svg" width="42" height="23">
    <path fill="#111" fill-rule="evenodd" d="M21.103 22.925C9.854 22.925.734 11.527.734 11.527S9.854.13 21.103.13s20.369 11.397 20.369 11.397-9.12 11.398-20.369 11.398zm0-19.85c-8.342 0-15.105 8.452-15.105 8.452s6.763 8.452 15.105 8.452 15.105-8.452 15.105-8.452-6.763-8.452-15.105-8.452zm0 14.741c-3.492 0-6.323-2.816-6.323-6.289 0-.805.158-1.572.436-2.28.546.939 1.556 1.578 2.726 1.578 1.745 0 3.161-1.408 3.161-3.144 0-.937-.42-1.769-1.074-2.345.35-.06.707-.097 1.074-.097 3.492 0 6.322 2.815 6.322 6.288 0 3.473-2.83 6.289-6.322 6.289z"/>
</svg>
