<svg id="레이어_1" data-name="레이어 1" xmlns="http://www.w3.org/2000/svg" xmlns:xlink="http://www.w3.org/1999/xlink" viewBox="0 0 18 18"><defs><style>.cls-1{fill:none;}.cls-2{clip-path:url(#clip-path);}.cls-3{fill:#96c;}.cls-4{fill:#fff;}</style><clipPath id="clip-path" transform="translate(0 0)"><rect class="cls-1" width="18" height="18"/></clipPath></defs><title>icon_new</title><g class="cls-2"><path class="cls-3" d="M14,18H4a4,4,0,0,1-4-4V4A4,4,0,0,1,4,0H14a4,4,0,0,1,4,4V14a4,4,0,0,1-4,4" transform="translate(0 0)"/><polygon class="cls-4" points="12.46 13.51 10.7 13.51 7.28 7.89 7.28 13.51 5.53 13.51 5.53 4.97 7.28 4.97 10.71 10.6 10.71 4.97 12.46 4.97 12.46 13.51"/></g></svg>