<svg xmlns="http://www.w3.org/2000/svg" width="25" height="44">
    <path fill="#515050" fill-rule="evenodd" d="M23.996 35.064H1c-.553 0-1.001-.45-1.001-1.006V16.509c0-6.407 5.143-11.622 11.499-11.717V.961H13.5v3.831c6.355.096 11.497 5.311 11.497 11.717v17.549c0 .556-.447 1.006-1.001 1.006zm-1.001-18.555c0-5.357-4.338-9.715-9.671-9.715h-1.651c-5.333 0-9.672 4.358-9.672 9.715v11.069h17.725v2.011H2.001v3.464h20.994V16.509zm-10.496 25.43c2.786 0 5.053-2.277 5.053-5.076h2.002c0 3.908-3.166 7.087-7.055 7.087-3.89 0-7.055-3.179-7.055-7.087h2.002c0 2.799 2.267 5.076 5.053 5.076z"/>
</svg>
