<svg xmlns="http://www.w3.org/2000/svg" width="33" height="32">
    <path fill="#111" fill-rule="evenodd" d="M31.55 3.561L19.107 16.075l12.441 12.514c.773.776.773 2.035 0 2.812-.386.388-.892.582-1.398.582-.505 0-1.011-.194-1.398-.582L16.311 18.887 3.869 31.401c-.386.388-.892.582-1.398.582-.506 0-1.012-.194-1.398-.582-.772-.777-.772-2.036 0-2.812l12.442-12.514L1.072 3.561C.3 2.784.3 1.525 1.072.749c.773-.777 2.024-.777 2.796 0l12.443 12.514L28.754.749c.773-.777 2.024-.777 2.796 0 .773.776.773 2.035 0 2.812z"/>
</svg>
