<?xml version="1.0" encoding="utf-8"?>
<!-- Generator: Adobe Illustrator 24.3.0, SVG Export Plug-In . SVG Version: 6.00 Build 0)  -->
<svg version="1.1" id="레이어_1" xmlns="http://www.w3.org/2000/svg" xmlns:xlink="http://www.w3.org/1999/xlink" x="0px"
	 y="0px" viewBox="0 0 26 45" style="enable-background:new 0 0 26 45;" xml:space="preserve">
<style type="text/css">
	.st0{fill-rule:evenodd;clip-rule:evenodd;fill:#515050;stroke:#515050;stroke-miterlimit:10;}
</style>
<path class="st0" d="M24.5,35.3H1.7c-0.5,0-1-0.5-1-1V16.5C0.7,10,5.8,4.7,12.1,4.7V0.8h2v3.9c6.3,0.1,11.4,5.4,11.4,11.9v17.8
	C25.5,34.8,25.1,35.3,24.5,35.3z M23.5,16.5c0-5.4-4.3-9.8-9.6-9.8h-1.6c-5.3,0-9.6,4.4-9.6,9.8v11.2h17.6v2H2.7v3.5h20.9
	C23.5,33.3,23.5,16.5,23.5,16.5z M13.1,42.3c2.8,0,5-2.3,5-5.1h2c0,4-3.1,7.2-7,7.2c-3.9,0-7-3.2-7-7.2h2
	C8.1,40,10.3,42.3,13.1,42.3z"/>
</svg>
