<svg xmlns="http://www.w3.org/2000/svg" width="50" height="39">
    <path fill="#515050" fill-rule="evenodd" d="M44.376 38.826c-1.818 0-3.765-.826-4.973-2.186-1.026 1.318-2.704 2.186-4.607 2.186-1.902 0-3.58-.868-4.606-2.186-1.208 1.36-3.155 2.186-4.973 2.186-1.819 0-3.766-.826-4.974-2.186-1.026 1.318-2.704 2.186-4.606 2.186-1.903 0-3.581-.868-4.607-2.186-1.208 1.36-3.155 2.186-4.973 2.186-2.939 0-5.154-2.655-5.154-6.174v-2.02c0-1.385 1.154-1.695 2.616-2.089 8.396-2.253 14.407-5.212 17.867-8.794l1.611 1.561C19.25 25.188 12.892 28.351 4.1 30.711c-.472.127-.769.217-.957.281v1.66c0 1.953 1.001 3.929 2.914 3.929 2.016 0 3.922-1.418 3.922-2.918v-2.021c0-.445.262-.849.669-1.027.907-.4 1.779-.713 2.621-1.015 1.969-.707 3.671-1.318 5.094-2.782l1.606 1.565c-1.787 1.838-3.806 2.563-5.944 3.33-.591.211-1.196.428-1.806.674v1.276c0 1.609 1.533 2.918 3.418 2.918 1.884 0 3.417-1.309 3.417-2.918v-1.011c0-.261.091-.514.257-.715.169-.204.363-.421.575-.655.861-.953 1.932-2.141 2.207-3.859l2.212.355c-.38 2.374-1.811 3.96-2.758 5.01l-.252.281v.594c0 1.5 1.905 2.918 3.922 2.918 2.016 0 3.921-1.418 3.921-2.918v-.594l-.252-.281c-.947-1.05-2.377-2.636-2.758-5.01l2.212-.355c.276 1.718 1.346 2.906 2.208 3.859.211.234.405.451.574.655.166.201.257.454.257.715v1.011c0 1.609 1.533 2.918 3.417 2.918 1.885 0 3.418-1.309 3.418-2.918v-1.276c-.61-.246-1.215-.463-1.806-.674-2.138-.767-4.157-1.492-5.944-3.33l1.606-1.565c1.423 1.464 3.125 2.075 5.094 2.782.842.302 1.714.615 2.621 1.015.407.178.669.582.669 1.027v2.021c0 1.5 1.906 2.918 3.922 2.918 1.913 0 2.914-1.976 2.914-3.929v-1.66c-.187-.064-.485-.154-.958-.281-8.791-2.36-15.149-5.523-18.896-9.401l1.611-1.561c3.46 3.582 9.471 6.541 17.866 8.794 1.463.394 2.617.704 2.617 2.089v2.02c0 3.519-2.215 6.174-5.154 6.174zM35.301 16.6c-.619 0-1.12-.502-1.12-1.122v-3.73c-2.446-.327-5.862-.315-7.844.426v7.345h-2.241V.322h2.241v2.444c3.676-.963 9.487-.464 11.505.606.367.194.596.577.596.992V7.76c2.204 1.249 6.759 2.766 10.231 3.595.402.095.718.404.824.803.105.399-.017.824-.316 1.107-2.454 2.306-6.734 3.335-13.876 3.335zm.897-11.481c-2.119-.664-7.215-.979-9.861-.023v4.727c1.367-.359 3.044-.517 4.709-.517 1.886 0 3.758.203 5.152.545V5.119zm2.24 5.17v1.147c0 .402-.215.775-.564.974-.348.201-.779.198-1.125-.008-.089-.053-.201-.104-.328-.154v2.098c4.861-.085 7.613-.718 9.276-1.458-2.357-.676-5.18-1.62-7.259-2.599z"/>
</svg>
