<svg xmlns="http://www.w3.org/2000/svg" width="23" height="20">
    <path fill="#FFF" fill-rule="evenodd" d="M11.881 19.896l-.582-.331C6.95 17.094 2.727 14.1 1.287 8.973c-.42-1.495-.62-2.353-.236-4.025C1.668 2.264 3.518.472 6 .156c2.164-.275 4.398.63 5.897 2.288C13.442.777 15.699-.122 17.868.178c2.422.336 4.231 2.119 4.841 4.77.384 1.672.184 2.53-.235 4.024-1.441 5.128-5.663 8.122-10.012 10.593l-.581.331zM6.792 2.481c-.165 0-.331.01-.495.031-1.501.191-2.545 1.246-2.942 2.97-.255 1.109-.161 1.536.207 2.846 1.148 4.087 4.622 6.681 8.319 8.835 3.696-2.154 7.169-4.748 8.317-8.835.368-1.31.461-1.737.207-2.846-.391-1.701-1.407-2.749-2.861-2.951-1.779-.245-3.684.788-4.627 2.517l-1.066 1.95-1.02-1.973c-.801-1.55-2.412-2.544-4.039-2.544z"/>
</svg>
