<svg xmlns="http://www.w3.org/2000/svg" xmlns:xlink="http://www.w3.org/1999/xlink" width="278" height="163" viewBox="0 0 278 163">
    <defs>
        <path id="gcjhgrq0sa" d="M0.769 0.243L8.857 0.243 8.857 1 0.769 1z"/>
        <path id="1kyuils18c" d="M0 0.862L277.672 0.862 277.672 147 0 147z"/>
        <path id="sfr0kq9qse" d="M0.307 0.906L13.408 0.906 13.408 14 0.307 14z"/>
    </defs>
    <g fill="none" fill-rule="evenodd">
        <g>
            <g>
                <path fill="#FFF" d="M81.136 7.82c0 4.32-3.5 7.822-7.819 7.822-4.32 0-7.824-3.502-7.824-7.822S68.997 0 73.317 0c4.318 0 7.82 3.5 7.82 7.82" transform="translate(-202 -154) translate(202 154)"/>
                <path fill="#00879A" d="M145.276 122.032c0 .888.044 1.766.131 2.633.056-.872.09-1.748.09-2.633 0-.117-.008-.234-.008-.353-.067-.003-.135-.008-.207-.013 0 .122-.006.243-.006.366" transform="translate(-202 -154) translate(202 154)"/>
                <path fill="#00879A" d="M145.282 121.666l.207.014c-.01-.752-.04-1.498-.084-2.24-.076.733-.11 1.474-.123 2.226" transform="translate(-202 -154) translate(202 154)"/>
                <g transform="translate(-202 -154) translate(202 154) translate(167 160.651)">
                    <mask id="9xv09ybceb" fill="#fff">
                        <use xlink:href="#gcjhgrq0sa"/>
                    </mask>
                    <path fill="#FFF" d="M.77.795C2.1.93 3.446 1 4.81 1 6.178 1 7.526.93 8.857.795 7.54.592 6.187.485 4.81.485c-1.373 0-2.723.107-4.042.31" mask="url(#9xv09ybceb)"/>
                </g>
                <g transform="translate(-202 -154) translate(202 154) translate(0 14.651)">
                    <mask id="edagdekmxd" fill="#fff">
                        <use xlink:href="#1kyuils18c"/>
                    </mask>
                    <path fill="#FFF" d="M175.856 133.611c-1.317.202-2.667.308-4.046.308-1.372 0-2.722-.106-4.04-.308-12.723-1.953-22.494-12.97-22.494-26.232 0-14.633 11.903-26.539 26.534-26.539 14.638 0 26.543 11.906 26.543 26.54 0 13.26-9.775 24.278-22.497 26.231zm-41.529-13.443l.061.17c-.02-.057-.042-.114-.06-.17zm-.756-2.463c.02.075.045.148.065.223-.02-.075-.045-.148-.065-.223zm-.594-2.51c.016.073.034.145.05.22-.016-.075-.034-.148-.05-.22zm-119.9-74.717c0-14.633 11.904-26.538 26.54-26.538 14.635 0 26.538 11.905 26.538 26.538 0 13.26-9.774 24.28-22.495 26.235-1.318.2-2.67.304-4.044.304-1.37 0-2.728-.104-4.044-.304-12.72-1.955-22.495-12.976-22.495-26.235zM277.58 104.79c-1.34-20.642-18.55-37.027-39.525-37.027-13.838 0-26.034 7.138-33.12 17.92-7.087-10.782-19.284-17.92-33.124-17.92-21.839 0-39.616 17.771-39.616 39.617 0 .89.033 1.773.091 2.648-1.2 12.054-10.498 21.765-22.363 23.584-1.315.204-2.669.308-4.04.308-1.374 0-2.727-.104-4.047-.308-12.717-1.953-22.497-12.97-22.497-26.23 0-14.633 11.91-26.54 26.543-26.54 5.593 0 10.787 1.741 15.072 4.708l6.312-11.488c-6.17-3.978-13.51-6.299-21.384-6.299-21.846 0-39.616 17.774-39.616 39.62 0 .405.026.806.038 1.21l-.038-.078c.026.254.04.492.06.738.02.428.045.854.078 1.28.28 7.162-2.2 10.61-2.2 10.61-4.788 6.988-12.823 11.584-21.916 11.584-14.63 0-26.54-11.906-26.54-26.539 0-13.095 9.541-23.989 22.034-26.138.61.028 1.22.046 1.835.046 1.364 0 2.714-.067 4.044-.206 6.662-.677 12.843-3.014 18.118-6.587 10.527-7.13 17.454-19.183 17.454-32.824 0-21.844-17.77-39.616-39.616-39.616C17.774.862 0 18.634 0 40.478 0 54.12 6.93 66.172 17.458 73.302c.48.325.974.627 1.468.931C9.084 81.448 2.67 93.077 2.67 106.187c0 21.846 17.774 39.618 39.618 39.618 12.746 0 24.086-6.07 31.336-15.454 2.751 3.852 6.171 7.194 10.094 9.851 5.274 3.575 11.456 5.913 18.118 6.59 1.32-.202 2.673-.308 4.046-.308.69 0 1.374.027 2.053.08-.675-.052-1.353-.078-2.038-.078-1.37 0-2.722.105-4.044.31 1.33.134 2.682.204 4.044.204 1.363 0 2.715-.07 4.043-.205-.365-.058-.738-.087-1.106-.126.36.04.727.068 1.09.123 6.662-.677 12.843-3.015 18.118-6.59 4.273-2.895 7.943-6.61 10.805-10.905 2.865 4.293 6.531 8.01 10.805 10.905 5.278 3.573 11.46 5.911 18.118 6.588 1.32-.2 2.67-.306 4.041-.306 1.38 0 2.73.106 4.046.306 6.662-.677 12.844-3.015 18.118-6.588 10.525-7.13 17.455-19.182 17.455-32.823h.086c0-14.633 11.907-26.539 26.54-26.539 13.761 0 25.108 10.527 26.413 23.95h-.002v34.803h13.206V104.79h-.093z" mask="url(#edagdekmxd)"/>
                </g>
                <g transform="translate(-202 -154) translate(202 154) translate(264 147.651)">
                    <mask id="vg91qfo9tf" fill="#fff">
                        <use xlink:href="#sfr0kq9qse"/>
                    </mask>
                    <path fill="#FFF" d="M.307 7.453C.307 11.066 3.24 14 6.857 14c3.616 0 6.55-2.934 6.55-6.547 0-3.616-2.934-6.547-6.55-6.547C3.24.906.307 3.837.307 7.453" mask="url(#vg91qfo9tf)"/>
                </g>
                <path fill="#FFF" d="M117.892 94.626c0 3.616 2.935 6.548 6.548 6.548 3.616 0 6.547-2.932 6.547-6.548s-2.931-6.545-6.547-6.545c-3.613 0-6.548 2.93-6.548 6.545" transform="translate(-202 -154) translate(202 154)"/>
            </g>
        </g>
    </g>
</svg>
